<svg width="32" height="32" viewBox="0 0 32 32" fill="none" xmlns="http://www.w3.org/2000/svg">
<g clip-path="url(#clip0_36_132)">
<path d="M26.6376 7.14831C29.0439 9.07044 29.3931 12.5433 27.4201 14.8969C25.4461 17.2504 21.9096 17.5792 19.5033 15.6571C17.0979 13.736 16.7268 10.2882 18.7008 7.93478C19.1883 7.35112 19.7934 6.87144 20.4786 6.52551C21.1639 6.17959 21.9147 5.97479 22.6845 5.92382C24.1143 5.82284 25.5295 6.26057 26.6376 7.14831Z" fill="#FFCC00"/>
<path d="M23.243 6.29335C26.1467 6.36184 28.4406 8.72108 28.3704 11.5634C28.3547 12.2364 28.2029 12.8997 27.9236 13.5152C27.6443 14.1307 27.2431 14.6863 26.7431 15.15C26.243 15.6137 25.6541 15.9764 25.0099 16.2171C24.3658 16.4578 23.6794 16.572 22.9899 16.5529C22.8894 16.5529 22.7917 16.538 22.6931 16.5306C25.4631 16.4473 27.0761 13.8781 27.1339 11.5347C27.1917 9.19124 25.7076 6.51828 22.9471 6.30171C23.0466 6.30171 23.1434 6.29152 23.2439 6.29245L23.243 6.29335Z" fill="#FF8E00"/>
<path d="M23.8947 5.92542C24.6717 6.02764 25.4186 6.28718 26.0876 6.6875C28.7679 8.28854 29.6115 11.7249 27.9731 14.3543C27.6024 14.9507 27.1199 15.4733 26.551 15.8944M25.333 16.5805C24.5015 16.9214 23.5992 17.064 22.7003 16.9967C21.8015 16.9295 20.9318 16.6541 20.1629 16.1934C17.4836 14.5933 16.6218 11.185 18.2611 8.55569C18.8241 7.64963 19.6397 6.91984 20.6121 6.45222M21.9594 5.99666C22.1528 5.95635 22.3491 5.92636 22.5474 5.90668" stroke="#1E1772" stroke-miterlimit="10" stroke-linecap="round" stroke-linejoin="round"/>
<path fill-rule="evenodd" clip-rule="evenodd" d="M29.7728 4.00093C29.7193 4.00141 29.6663 4.01225 29.6171 4.03279C29.568 4.05333 29.5235 4.08314 29.4861 4.12058C29.4488 4.15801 29.4197 4.20239 29.4 4.25095C29.3804 4.29952 29.3708 4.35138 29.3717 4.40359C29.3717 4.67847 29.2512 4.80342 28.9715 4.80342C28.4214 4.79417 28.4214 5.60484 28.9715 5.59744C29.2408 5.59744 29.3717 5.67154 29.3717 5.98067C29.3623 6.51747 30.1929 6.51747 30.1853 5.98067C30.1853 5.6993 30.32 5.59744 30.5875 5.59744C31.1375 5.6067 31.1375 4.79602 30.5875 4.80342C30.2243 4.80342 30.1853 4.60072 30.1853 4.40359C30.1859 4.35042 30.1758 4.29759 30.1553 4.24836C30.1346 4.19912 30.1041 4.15444 30.0656 4.11685C30.0271 4.07925 29.9813 4.04957 29.9309 4.02951C29.8805 4.00946 29.8263 3.99941 29.7719 4.00003L29.7728 4.00093Z" fill="#FF8E00"/>
<path d="M23.3751 7.18753V8.27877H22.8039V7.18753H23.3751ZM23.3056 13.2282V14.2233H22.7343V13.2282H23.3056ZM23.7084 12.0148C23.7084 11.8743 23.6828 11.7547 23.6315 11.6561C23.5827 11.5574 23.5021 11.4699 23.3898 11.3934C23.28 11.317 23.131 11.243 22.9431 11.1715C22.6257 11.0482 22.3461 10.9175 22.1044 10.7794C21.8652 10.6388 21.6784 10.4649 21.5441 10.2578C21.4098 10.0482 21.3427 9.78307 21.3427 9.46248C21.3427 9.15668 21.4147 8.89158 21.5588 8.66717C21.7028 8.44276 21.9018 8.27014 22.1557 8.1493C22.412 8.02599 22.7099 7.96434 23.0493 7.96434C23.308 7.96434 23.5424 8.0038 23.7524 8.08271C23.9623 8.15916 24.143 8.2726 24.2943 8.42303C24.4457 8.57099 24.5617 8.75225 24.6423 8.9668C24.7228 9.18135 24.7631 9.42672 24.7631 9.70292H23.712C23.712 9.55495 23.6962 9.42425 23.6645 9.31081C23.6328 9.19737 23.5863 9.10243 23.5253 9.02598C23.4667 8.94954 23.3959 8.89282 23.3129 8.85583C23.2299 8.81637 23.1384 8.79664 23.0382 8.79664C22.8893 8.79664 22.7673 8.82624 22.672 8.88542C22.5768 8.94461 22.5072 9.02475 22.4633 9.12586C22.4218 9.2245 22.401 9.33794 22.401 9.46617C22.401 9.59195 22.423 9.70168 22.467 9.79539C22.5133 9.88911 22.5927 9.97542 22.705 10.0543C22.8173 10.1308 22.9711 10.2097 23.1664 10.2911C23.4838 10.4144 23.7621 10.5475 24.0014 10.6906C24.2406 10.8336 24.4274 11.0087 24.5617 11.2158C24.696 11.423 24.7631 11.6869 24.7631 12.0075C24.7631 12.3256 24.6899 12.5968 24.5433 12.8213C24.3969 13.0432 24.1918 13.2134 23.9281 13.3317C23.6645 13.4476 23.3593 13.5056 23.0126 13.5056C22.788 13.5056 22.5646 13.476 22.3425 13.4168C22.1202 13.3551 21.9189 13.2565 21.7382 13.1209C21.5575 12.9852 21.4135 12.8052 21.306 12.5808C21.1986 12.3539 21.1449 12.0753 21.1449 11.7448H22.1996C22.1996 11.9248 22.2228 12.0753 22.2692 12.1961C22.3156 12.3145 22.3766 12.4095 22.4523 12.481C22.5304 12.55 22.6183 12.5993 22.716 12.6289C22.8136 12.6585 22.9125 12.6733 23.0126 12.6733C23.1689 12.6733 23.2971 12.6449 23.3971 12.5883C23.4996 12.5315 23.5766 12.4538 23.6278 12.3551C23.6816 12.2541 23.7084 12.1406 23.7084 12.0148Z" fill="#1E1772"/>
<path d="M13.5134 15.8475C15.9197 17.7696 16.2689 21.2425 14.2958 23.5961C12.3219 25.9495 8.78537 26.2784 6.37908 24.3563C3.97362 22.4352 3.60258 18.9874 5.57655 16.6339C6.06399 16.0503 6.66913 15.5706 7.35441 15.2247C8.03968 14.8787 8.79047 14.6739 9.56019 14.6229C10.9901 14.522 12.4052 14.9597 13.5134 15.8475Z" fill="#FFCC00"/>
<path d="M10.1187 14.9925C13.0224 15.061 15.3164 17.4202 15.2462 20.2625C15.2305 20.9355 15.0786 21.5988 14.7994 22.2143C14.5201 22.8299 14.1189 23.3855 13.6188 23.8492C13.1188 24.3128 12.5298 24.6755 11.8857 24.9162C11.2416 25.157 10.5552 25.2711 9.86568 25.2521C9.76518 25.2521 9.66753 25.2371 9.56891 25.2298C12.3389 25.1465 13.9518 22.5773 14.0097 20.2338C14.0675 17.8904 12.5834 15.2174 9.82286 15.0008C9.92246 15.0008 10.0191 14.9907 10.1196 14.9916L10.1187 14.9925Z" fill="#FF8E00"/>
<path d="M10.7704 14.6245C11.5475 14.7268 12.2943 14.9864 12.9633 15.3867C15.6436 16.9877 16.4873 20.4241 14.8488 23.0535C14.4781 23.6499 13.9956 24.1724 13.4268 24.5936M12.2088 25.2797C11.3772 25.6205 10.4749 25.7632 9.57603 25.6959C8.67723 25.6286 7.80754 25.3533 7.03867 24.8926C4.35932 23.2925 3.49748 19.8842 5.13688 17.2549C5.69982 16.3488 6.51545 15.619 7.48778 15.1514M8.8351 14.6958C9.02853 14.6555 9.22488 14.6255 9.4231 14.6058" stroke="#1E1772" stroke-miterlimit="10" stroke-linecap="round" stroke-linejoin="round"/>
<path fill-rule="evenodd" clip-rule="evenodd" d="M2.21381 14.4399C2.1603 14.4404 2.10741 14.4513 2.05822 14.4718C2.00903 14.4924 1.96448 14.5221 1.92718 14.5596C1.88988 14.5971 1.86072 14.6414 1.84106 14.6899C1.82139 14.7385 1.81181 14.7904 1.81281 14.8426C1.81281 15.1175 1.69226 15.2424 1.41251 15.2424C0.862496 15.2332 0.862496 16.0439 1.41251 16.0364C1.68183 16.0364 1.81281 16.1105 1.81281 16.4197C1.80332 16.9564 2.63396 16.9564 2.62637 16.4197C2.62637 16.1383 2.7611 16.0364 3.02852 16.0364C3.57854 16.0457 3.57854 15.235 3.02852 15.2424C2.66532 15.2424 2.62637 15.0397 2.62637 14.8426C2.627 14.7894 2.61683 14.7366 2.59628 14.6874C2.57572 14.6381 2.54519 14.5934 2.50667 14.5558C2.46815 14.5183 2.42238 14.4886 2.37193 14.4685C2.32148 14.4485 2.26735 14.4384 2.21288 14.439L2.21381 14.4399Z" fill="#FF8E00"/>
<path d="M11.2803 22.1271H7.40206V21.2615H11.2766L11.2803 22.1271ZM10.2072 19.9779H7.39107V19.1382H10.2072V19.9779ZM9.03168 18.2838L9.12325 20.5217C9.12565 20.7658 9.07563 20.9754 8.9731 21.1505C8.87058 21.3232 8.69478 21.465 8.44576 21.576L7.75362 21.2615C7.8293 21.2418 7.88545 21.1974 7.92208 21.1283C7.96114 21.0568 7.98556 20.9717 7.99532 20.8731C8.00509 20.7745 8.00997 20.677 8.00997 20.5809L7.94039 18.2838C7.94039 17.9434 8.00875 17.6536 8.14546 17.4145C8.28463 17.1728 8.4775 16.9891 8.7241 16.8633C8.9731 16.7351 9.26238 16.6709 9.592 16.6709C9.94848 16.6709 10.25 16.7351 10.4965 16.8633C10.7456 16.9915 10.9335 17.1703 11.0605 17.3997C11.1899 17.629 11.2546 17.8966 11.2546 18.2023H10.2109C10.2109 18.0371 10.1829 17.9064 10.1267 17.8103C10.0705 17.7116 9.99603 17.6414 9.90325 17.5994C9.81048 17.555 9.70795 17.5328 9.59568 17.5328C9.4858 17.5328 9.38815 17.5612 9.30273 17.6179C9.2197 17.6746 9.15378 17.7585 9.10495 17.8695C9.05613 17.9804 9.03168 18.1186 9.03168 18.2838Z" fill="#1E1772"/>
<path d="M5.73669 12.6992C6.72245 8.46738 10.6595 5.62815 14.942 6.06073L16.0713 6.17479" stroke="#1E1772"/>
<path d="M26.8365 19.6585C25.8508 23.8903 21.9137 26.7295 17.6312 26.297L16.5019 26.1829" stroke="#1E1772"/>
</g>
<defs>
<clipPath id="clip0_36_132">
<rect width="30" height="25" fill="white" transform="translate(1 4)"/>
</clipPath>
</defs>
</svg>
